<svg width="310" height="4249" viewBox="0 0 310 4249" fill="none" xmlns="http://www.w3.org/2000/svg">
<path d="M283 541C329.4 678.2 402.333 728.5 433 736.5L433 3.05176e-05L27.5 -4.93236e-06C4.83334 37.8333 -24.9 124.3 37.5 167.5C115.5 221.5 225 369.5 283 541Z" fill="url(#paint0_linear_19_10)"/>
<path d="M283 2744C329.4 2881.2 402.333 2931.5 433 2939.5L433 2203L27.5 2203C4.83334 2240.83 -24.9 2327.3 37.5 2370.5C115.5 2424.5 225 2572.5 283 2744Z" fill="url(#paint1_linear_19_10)"/>
<path d="M283 1818C329.4 1680.8 402.333 1630.5 433 1622.5L433 2359H27.5C4.83334 2321.17 -24.9 2234.7 37.5 2191.5C115.5 2137.5 225 1989.5 283 1818Z" fill="url(#paint2_linear_19_10)"/>
<path d="M296 4021C342.4 3883.8 415.333 3833.5 446 3825.5L446 4562H40.5C17.8333 4524.17 -11.9 4437.7 50.5 4394.5C128.5 4340.5 238 4192.5 296 4021Z" fill="url(#paint3_linear_19_10)"/>
<defs>
<linearGradient id="paint0_linear_19_10" x1="464.5" y1="625" x2="323" y2="-3.14506e-06" gradientUnits="userSpaceOnUse">
<stop stop-color="#B6DBFC"/>
<stop offset="1" stop-color="#B1D4F2" stop-opacity="0"/>
</linearGradient>
<linearGradient id="paint1_linear_19_10" x1="464.5" y1="2828" x2="323" y2="2203" gradientUnits="userSpaceOnUse">
<stop stop-color="#B6DBFC"/>
<stop offset="1" stop-color="#B1D4F2" stop-opacity="0"/>
</linearGradient>
<linearGradient id="paint2_linear_19_10" x1="464.5" y1="1734" x2="323" y2="2359" gradientUnits="userSpaceOnUse">
<stop stop-color="#B6DBFC"/>
<stop offset="1" stop-color="#B1D4F2" stop-opacity="0"/>
</linearGradient>
<linearGradient id="paint3_linear_19_10" x1="477.5" y1="3937" x2="336" y2="4562" gradientUnits="userSpaceOnUse">
<stop stop-color="#B6DBFC"/>
<stop offset="1" stop-color="#B1D4F2" stop-opacity="0"/>
</linearGradient>
</defs>
</svg>
