<svg width="239" height="159" viewBox="0 0 239 159" fill="none" xmlns="http://www.w3.org/2000/svg">
<path d="M110.58 127.42C110.58 126.26 111 125.2 111.84 124.24C112.68 123.28 113.86 122.8 115.38 122.8H121.92V128.02C120.88 129.06 119.76 129.88 118.56 130.48C117.36 131.08 116.12 131.38 114.84 131.38C113.96 131.38 113.2 131.2 112.56 130.84C111.92 130.44 111.42 129.94 111.06 129.34C110.74 128.74 110.58 128.1 110.58 127.42ZM108.12 114.22C109.24 113.74 110.54 113.3 112.02 112.9C113.54 112.46 115.06 112.24 116.58 112.24C118.46 112.24 119.8 112.8 120.6 113.92C121.4 115 121.82 116.4 121.86 118.12V118.3H115.5C112.3 118.34 109.7 119.14 107.7 120.7C105.7 122.26 104.7 124.5 104.7 127.42C104.7 130.18 105.54 132.42 107.22 134.14C108.9 135.86 111.48 136.72 114.96 136.72C116.48 136.72 117.96 136.36 119.4 135.64C120.84 134.92 122.08 134.06 123.12 133.06L124.14 136H128.7V116.56C128.7 114.6 128.14 112.82 127.02 111.22C125.94 109.62 124.48 108.38 122.64 107.5C120.8 106.58 118.74 106.12 116.46 106.12C115.66 106.12 114.6 106.24 113.28 106.48C111.96 106.68 110.66 106.98 109.38 107.38C108.1 107.74 107.08 108.18 106.32 108.7L108.12 114.22ZM142.083 136V117.46C143.123 116.5 144.243 115.64 145.443 114.88C146.683 114.12 147.903 113.5 149.103 113.02C150.343 112.54 151.443 112.3 152.403 112.3L150.963 106.9C149.923 106.9 148.783 107.16 147.543 107.68C146.343 108.2 145.183 108.84 144.063 109.6C142.943 110.32 141.983 111.02 141.183 111.7L138.963 106.9H135.363V136H142.083ZM160.597 136L163.717 131.62V93.64L157.057 94.3V136H160.597ZM161.317 116.02C162.637 114.62 163.897 113.58 165.097 112.9C166.337 112.22 167.757 111.88 169.357 111.88C171.037 111.88 172.457 112.3 173.617 113.14C174.777 113.94 175.637 115.06 176.197 116.5C176.797 117.94 177.097 119.62 177.097 121.54C177.097 123.3 176.797 124.9 176.197 126.34C175.597 127.78 174.717 128.92 173.557 129.76C172.397 130.56 170.977 130.96 169.297 130.96C167.777 130.96 166.377 130.66 165.097 130.06C163.857 129.42 162.577 128.32 161.257 126.76L159.277 131.44C160.037 132.52 160.997 133.46 162.157 134.26C163.357 135.06 164.597 135.68 165.877 136.12C167.197 136.56 168.337 136.78 169.297 136.78C172.377 136.78 174.997 136.14 177.157 134.86C179.357 133.58 181.057 131.8 182.257 129.52C183.457 127.2 184.057 124.52 184.057 121.48C184.057 118.36 183.457 115.66 182.257 113.38C181.097 111.06 179.417 109.28 177.217 108.04C175.057 106.76 172.477 106.12 169.477 106.12C168.397 106.12 167.237 106.32 165.997 106.72C164.797 107.12 163.617 107.72 162.457 108.52C161.297 109.28 160.277 110.24 159.397 111.4L161.317 116.02ZM214.592 123.22V121.78C214.592 118.94 214.132 116.34 213.212 113.98C212.332 111.62 210.932 109.72 209.012 108.28C207.092 106.84 204.632 106.12 201.632 106.12C198.672 106.12 196.112 106.76 193.952 108.04C191.832 109.32 190.192 111.12 189.032 113.44C187.912 115.72 187.352 118.4 187.352 121.48C187.352 124.52 187.952 127.2 189.152 129.52C190.352 131.8 192.172 133.58 194.612 134.86C197.052 136.1 200.052 136.72 203.612 136.72C205.132 136.72 206.532 136.58 207.812 136.3C209.092 136.02 210.272 135.62 211.352 135.1C212.432 134.54 213.432 133.96 214.352 133.36L212.312 128.44C210.872 129.2 209.492 129.82 208.172 130.3C206.892 130.78 205.412 131.02 203.732 131.02C201.652 131.02 199.952 130.7 198.632 130.06C197.352 129.38 196.372 128.46 195.692 127.3C195.052 126.14 194.632 124.78 194.432 123.22H214.592ZM194.552 118.66C194.752 117.22 195.132 116 195.692 115C196.292 114 197.072 113.24 198.032 112.72C199.032 112.16 200.152 111.88 201.392 111.88C202.672 111.88 203.752 112.16 204.632 112.72C205.552 113.24 206.292 114 206.852 115C207.452 116 207.872 117.22 208.112 118.66H194.552ZM226.399 136V117.46C227.439 116.5 228.559 115.64 229.759 114.88C230.999 114.12 232.219 113.5 233.419 113.02C234.659 112.54 235.759 112.3 236.719 112.3L235.279 106.9C234.239 106.9 233.099 107.16 231.859 107.68C230.659 108.2 229.499 108.84 228.379 109.6C227.259 110.32 226.299 111.02 225.499 111.7L223.279 106.9H219.679V136H226.399Z" fill="#99BAED"/>
<path d="M74.5548 11.0178C65.7244 11.4622 58.7555 19.0181 59.2099 27.8878L61.5498 73.4964L46.3226 79.949C41.6186 71.0091 30.8094 67.0082 21.3704 71.0091C11.4039 75.2349 6.74637 86.7754 10.9656 96.7915C15.1867 106.805 26.6863 111.502 36.6551 107.278C43.4952 104.378 47.8331 98.031 48.518 91.0987L67.1671 83.1945L68.2086 103.505C62.2985 107.145 58.5022 113.833 58.8829 121.283C59.4406 132.141 68.6547 140.498 79.4628 139.955C90.2737 139.41 98.5834 130.17 98.0272 119.315C97.4996 109.034 89.2079 100.999 79.1521 100.636L78.3003 84.0506L120.171 66.3044C128.316 62.8533 132.048 53.2576 128.6 45.0758L77.4145 66.7718L74.5548 11.0178ZM37.6833 94.5561C34.7058 99.3276 28.4364 100.766 23.6808 97.7695C18.9252 94.7727 17.4837 88.4744 20.461 83.7031C23.4391 78.9304 29.7078 77.4927 34.4634 80.4896C39.2191 83.4864 40.6614 89.7834 37.6833 94.5561ZM87.0538 125.668C84.0763 130.44 77.8069 131.878 73.0513 128.881C68.2957 125.885 66.854 119.587 69.8315 114.815C72.8096 110.042 79.0783 108.605 83.8339 111.601C88.5894 114.598 90.0319 120.895 87.0538 125.668Z" fill="#99BAED"/>
</svg>
